<svg version="1.0" xmlns="http://www.w3.org/2000/svg" width="260" height="260" viewBox="0 0 195 195"><path d="M56.7 32.4c-9.4 5.7-12.8 10-15.2 19.1-.8 3-2.1 6.2-3 7.1-4.2 4.3-6.5 8.5-7.2 13-.4 3.2-1.6 6.2-3.6 8.6-3.8 4.8-6.5 12.8-6.1 18 .3 2.9-.1 4.7-1.3 6-2.5 2.7-2.1 8.7.6 11 1.3 1 2.9 1.8 3.7 1.8 1.1 0 1.4 1.7 1.4 6.8 0 8.1 1.7 11.2 6.1 11.2 1.6 0 3 .4 3 1 .1.5.2 1.3.3 1.7.1.5.6 3.5 1 6.8 1.1 9 1.4 11.4 2.2 18.5.3 3.6.8 7.2.9 8 .2.8.6 4.9 1 9 .8 9.4 2.1 13.8 4.3 14.4.9.3 8.4.4 16.5.4 17.4-.1 17.2 0 18.2-10.8.3-3.6.8-7.6 1-9 .2-1.4.6-5 1-8 1.1-9.9 1.6-14.5 2-17 .2-1.4.7-5 1-8 .9-6.8 1-7 4.4-7 4.2 0 5.4-2.1 5.3-9.9-.1-6.8 0-6.9 3.6-9.2 2.8-1.9 3.8-3.2 4-5.7.2-1.8-.2-4-.8-4.7-.9-1.1-.9-2.3 0-5.1 1.7-5.1.7-15-1.9-20.2-2.9-5.6-9.7-12.5-19.5-19.7-4.3-3.1-9-6.9-10.2-8.4-3.2-3.6-5.2-10.5-4.7-16.7.5-6.7-.9-7.2-8-3zm3 8.7c.3 4.8 3.1 11.4 6.4 15 1.3 1.4 6.8 5.8 12.1 9.8C88.3 73.4 93 78.4 95.5 84.4c1.5 3.7 2 11.3.8 15.5l-.6 2.4-13.6-.6c-23.9-1.1-38.7-7-44.2-17.9-2.7-5.3-2.3-12.7.8-17.4 2.3-3.3 4.3-3.8 4.3-1 0 2.7 7.2 9.5 13.2 12.4 11 5.4 13.9 6.3 15.4 5.1 2.2-1.8 1.7-2.9-2.3-4.5C54 72.2 47.7 67.2 46.4 60.5c-1.5-8.3 1.6-15.8 8.7-21 1.8-1.4 3.5-2.5 3.8-2.5.3 0 .7 1.8.8 4.1zM40.6 94.7c10.9 8.5 23.7 11.9 46.7 12.2 7 .1 8.9.4 9.4 1.7.9 2.4-1 3.5-6.8 3.7-4.6.2-5.4.5-5.4 2.2 0 1.2.9 2.1 2.4 2.5 2.2.5 2.4 1.1 2.5 6.8.1 3.4-.1 6.2-.4 6.3-.7.1-53 .1-55.7 0-2.1-.1-2.3-.6-2.3-6.6V117h23c20.2 0 23.1-.2 23.7-1.6.3-.9 0-2-.7-2.4-.7-.4-12.7-.8-26.7-.8-16.3 0-25.9-.4-26.5-1-2.1-2.1 0-4.2 4-4.2 2.1 0 4.3-.5 4.9-1.1 1.8-1.8.3-3.9-2.7-3.9-1.9 0-2.9-.6-3.3-1.9-.8-3.2.3-9.1 2.4-13.3l2-4 2.8 4.4c1.5 2.4 4.6 5.8 6.7 7.5zM55 135.8c0 .5-1.3 2-2.8 3.5l-2.8 2.7-3.2-2.8c-1.8-1.6-2.9-3.2-2.5-3.5.9-1 11.3-.9 11.3.1zm22 0c0 .4-1.3 2-2.8 3.5l-2.9 2.7-3.1-3c-1.8-1.7-3.2-3.2-3.2-3.4 0-.1 2.7-.4 6-.5 3.3-.1 6 .2 6 .7zm-11.1 8.1c1.9 1.9 1.8 2-1.8 5.5l-3.7 3.7-3.8-3.7-3.8-3.7 3.7-3.7c4.1-4.2 3.1-4.4 9.4 1.9zm13.1 1.8c0 3.6 0 3.6-2 1.8-1.9-1.7-1.9-1.9-.4-3.7 2.3-2.4 2.4-2.4 2.4 1.9zm-26.1 7.2c1.7 1.6 3.1 3.3 3.1 3.8s-1.5 2.3-3.2 4l-3.3 3.2-3.2-3c-1.8-1.6-3.3-3.4-3.3-4.1 0-1.3 4.9-6.8 6.1-6.8.4 0 2.1 1.3 3.8 2.9zm22.3-.2c1.5 1.5 2.8 3.1 2.8 3.7 0 .5-1.4 2.5-3.2 4.3l-3.2 3.3-3.8-3.7-3.8-3.7 3.2-3.3c1.8-1.8 3.6-3.3 4.2-3.3.5 0 2.3 1.2 3.8 2.7zm-10.7 18c-1.9 1.8-3.8 3.3-4.3 3.3-.4 0-2.3-1.5-4-3.3l-3.3-3.4 3.8-3.6 3.7-3.7 3.8 3.8 3.8 3.7-3.5 3.2zm-7.5 8.4c0 .5-7.5.5-11.2 0-1.6-.2-.7-3.8 1.3-6l2.1-2.3 3.9 3.8c2.2 2.1 3.9 4.1 3.9 4.5zm18-2.1c0 2.5-.2 2.6-6 2.6-3.3 0-6-.1-6-.2 0-.2 1.9-2.1 4.2-4.3 3.9-3.9 4.2-4 6-2.5 1 1 1.8 2.9 1.8 4.4zm-1.2 9.9-.3 2.6-13.2.3c-7.3.1-13.3-.1-13.3-.5s-.3-1.7-.6-2.8c-.5-1.9 0-2 13.6-2.1h14.1l-.3 2.5z"/><path d="M114.8 151.5c-.1.1-3.1.5-6.6.8-11.7 1.1-20.2 6.6-22.6 14.6-2.8 9.4.8 18.2 8.9 22.1 8.8 4.2 23.5 5.6 34.5 3.2 3-.7 3.6-1.3 4-4.1l.5-3.3 1.9 2.1c6.1 6.7 28.7 8.6 39.6 3.3l3.5-1.7 1-9.7c1.2-11.6.7-14.8-3.2-19.6-7.2-8.9-27.3-10.1-38-2.3l-4 2.9.3-2.8c.4-3.1-.2-3.4-9.6-4.5-3-.4-6.5-.8-7.7-1-1.2-.2-2.3-.2-2.5 0zm15.3 5.2c.5.5.9 3 .7 5.4l-.3 4.4-7.2-.2c-12.1-.3-17.4 2.6-15.2 8.4 1.3 3.5 4.7 4.7 13.5 4.5l8-.1v4.6c-.1 4.5-.2 4.7-3.6 5.6-1.9.5-7.9.7-13.2.5-7.9-.4-10.6-1-15.3-3.2-6.2-3.1-8.4-5.8-9.5-11.6-1.4-7.7 4.2-14.9 14-18.3 5.3-1.7 26.3-1.8 28.1 0zm38.1.6c5.6 2.9 8.8 7.7 8.8 13.3v4.4h-13c-8.1 0-13 .4-13 1s1.5 1.9 3.3 3c3.9 2.4 10.7 2.6 16.6.5 4.7-1.6 5.2-1.1 4.8 4-.4 4.5-6.3 6.4-19.2 6.1-14.8-.3-21.3-4.2-23-13.5-.7-4.1.9-10.1 3.7-13.6 5.5-7.1 21.9-9.8 31-5.2zm-40.4 12.6c1.9.1 2.3.6 2 2.8-.3 2.7-.6 2.8-6.2 3.1-8.4.5-12.6-.4-12.6-2.8 0-2.3 5.1-3.8 11.5-3.4 1.7.1 4 .2 5.3.3z"/><path d="M154.1 164.6c-3.9 2.8-2.6 4.4 3.4 4.4 4 0 5.5-.4 5.5-1.4 0-3.3-5.6-5.2-8.9-3z"/></svg>